<?xml version="1.0" encoding="UTF-8"?>
<svg xmlns="http://www.w3.org/2000/svg" xmlns:xlink="http://www.w3.org/1999/xlink" width="50pt" height="50pt" viewBox="0 0 50 50" version="1.1">
<g id="surface1">
<path style=" stroke:none;fill-rule:nonzero;fill:rgb(31.372549%,31.372549%,31.372549%);fill-opacity:1;" d="M 42.5 14.78125 L 42.5 8.914062 L 1.628906 8.914062 L 1.628906 35.378906 C 1.628906 38.53125 4.183594 41.085938 7.335938 41.085938 L 42.554688 41.085938 C 45.761719 41.085938 48.425781 38.476562 48.425781 35.21875 L 48.425781 14.78125 Z M 45.433594 35.21875 C 45.433594 36.847656 44.128906 38.152344 42.5 38.152344 L 7.335938 38.152344 C 5.816406 38.152344 4.566406 36.902344 4.566406 35.378906 L 4.566406 11.847656 L 39.621094 11.847656 L 39.621094 33.804688 C 39.621094 34.621094 40.273438 35.273438 41.085938 35.273438 C 41.902344 35.273438 42.554688 34.621094 42.554688 33.804688 L 42.554688 17.71875 L 45.488281 17.71875 Z M 45.433594 35.21875 "/>
<path style=" stroke:none;fill-rule:nonzero;fill:rgb(31.372549%,31.372549%,31.372549%);fill-opacity:1;" d="M 7.5 14.78125 L 36.738281 14.78125 L 36.738281 17.71875 L 7.5 17.71875 Z M 7.5 14.78125 "/>
<path style=" stroke:none;fill-rule:nonzero;fill:rgb(31.372549%,31.372549%,31.372549%);fill-opacity:1;" d="M 25 32.28125 L 36.683594 32.28125 L 36.683594 35.21875 L 25 35.21875 Z M 25 32.28125 "/>
<path style=" stroke:none;fill-rule:nonzero;fill:rgb(31.372549%,31.372549%,31.372549%);fill-opacity:1;" d="M 25 26.46875 L 36.683594 26.46875 L 36.683594 29.402344 L 25 29.402344 Z M 25 26.46875 "/>
<path style=" stroke:none;fill-rule:nonzero;fill:rgb(31.372549%,31.372549%,31.372549%);fill-opacity:1;" d="M 25 20.597656 L 36.683594 20.597656 L 36.683594 23.53125 L 25 23.53125 Z M 25 20.597656 "/>
<path style=" stroke:none;fill-rule:nonzero;fill:rgb(31.372549%,31.372549%,31.372549%);fill-opacity:1;" d="M 22.066406 35.21875 L 7.5 35.21875 L 7.5 20.542969 L 22.121094 20.542969 L 22.121094 35.21875 Z M 10.378906 32.28125 L 19.128906 32.28125 L 19.128906 23.476562 L 10.378906 23.476562 Z M 10.378906 32.28125 "/>
</g>
</svg>
