<?xml version="1.0" encoding="UTF-8"?>
<svg xmlns="http://www.w3.org/2000/svg" xmlns:xlink="http://www.w3.org/1999/xlink" width="50pt" height="50pt" viewBox="0 0 50 50" version="1.1">
<g id="surface1">
<path style=" stroke:none;fill-rule:nonzero;fill:rgb(18.431373%,18.431373%,18.431373%);fill-opacity:1;" d="M 25 7.5 C 26.570312 7.492188 28.128906 7.707031 29.640625 8.128906 C 31.101562 8.539062 32.5 9.136719 33.808594 9.898438 C 36.40625 11.425781 38.574219 13.59375 40.101562 16.191406 C 40.863281 17.5 41.460938 18.898438 41.871094 20.359375 C 42.714844 23.394531 42.714844 26.605469 41.871094 29.640625 C 41.460938 31.097656 40.863281 32.5 40.101562 33.808594 C 38.574219 36.40625 36.40625 38.574219 33.808594 40.101562 C 32.5 40.863281 31.101562 41.460938 29.640625 41.871094 C 26.605469 42.714844 23.394531 42.714844 20.359375 41.871094 C 18.902344 41.460938 17.5 40.863281 16.191406 40.101562 C 13.59375 38.574219 11.425781 36.40625 9.898438 33.808594 C 9.136719 32.5 8.539062 31.097656 8.128906 29.640625 C 7.285156 26.605469 7.285156 23.394531 8.128906 20.359375 C 8.539062 18.898438 9.136719 17.5 9.898438 16.191406 C 11.425781 13.59375 13.59375 11.425781 16.191406 9.898438 C 17.5 9.136719 18.902344 8.539062 20.359375 8.128906 C 21.871094 7.707031 23.429688 7.492188 25 7.5 Z M 25 40.308594 C 26.285156 40.308594 27.566406 40.140625 28.808594 39.808594 C 30.039062 39.484375 31.226562 39.011719 32.339844 38.398438 C 33.453125 37.789062 34.488281 37.042969 35.421875 36.179688 C 36.359375 35.308594 37.191406 34.324219 37.890625 33.25 C 37.742188 32.910156 37.601562 32.578125 37.460938 32.25 C 37.324219 31.902344 37.25 31.535156 37.25 31.160156 C 37.246094 30.824219 37.265625 30.492188 37.308594 30.160156 C 37.308594 29.898438 37.390625 29.679688 37.421875 29.5 C 37.449219 29.320312 37.480469 29.148438 37.5 29 C 37.515625 28.824219 37.492188 28.648438 37.441406 28.480469 C 37.363281 28.238281 37.261719 28.003906 37.140625 27.78125 C 37 27.507812 36.792969 27.152344 36.519531 26.71875 C 36.519531 26.640625 36.539062 26.535156 36.578125 26.398438 C 36.609375 26.257812 36.628906 26.113281 36.640625 25.96875 C 36.648438 25.832031 36.648438 25.691406 36.640625 25.550781 C 36.640625 25.4375 36.613281 25.328125 36.558594 25.230469 C 36.246094 25.191406 35.933594 25.128906 35.628906 25.039062 C 35.324219 24.957031 35.035156 24.820312 34.78125 24.628906 L 34.878906 24.539062 C 34.730469 24.578125 34.582031 24.628906 34.441406 24.691406 L 34 24.871094 L 33.558594 25.019531 C 33.410156 25.058594 33.253906 25.082031 33.101562 25.078125 L 32.828125 25.078125 L 32.878906 24.960938 L 32.359375 25.128906 C 32.195312 25.191406 32.019531 25.226562 31.839844 25.230469 C 31.667969 25.21875 31.5 25.175781 31.339844 25.109375 C 31.113281 25.027344 30.894531 24.929688 30.679688 24.820312 C 30.472656 24.714844 30.277344 24.585938 30.101562 24.441406 C 29.964844 24.351562 29.871094 24.210938 29.851562 24.050781 L 29.851562 24 C 29.785156 23.925781 29.710938 23.863281 29.628906 23.808594 L 29.371094 23.640625 C 29.292969 23.585938 29.21875 23.523438 29.160156 23.449219 C 29.101562 23.382812 29.070312 23.296875 29.070312 23.210938 L 29.261719 23.058594 L 28.871094 23.011719 L 28.730469 22.5 C 28.730469 22.558594 28.808594 22.578125 28.890625 22.570312 C 28.957031 22.566406 29.019531 22.542969 29.070312 22.5 L 28.449219 22.179688 L 28.929688 21 C 28.78125 20.558594 28.742188 20.089844 28.820312 19.628906 C 28.894531 19.332031 29.050781 19.058594 29.269531 18.839844 C 29.503906 18.613281 29.757812 18.40625 30.03125 18.21875 C 30.351562 17.992188 30.632812 17.710938 30.859375 17.390625 L 30.808594 17.179688 L 31.941406 15.808594 L 32.199219 15.808594 C 32.519531 15.808594 32.878906 15.808594 33.28125 15.808594 C 33.679688 15.808594 34.082031 15.769531 34.488281 15.691406 L 35.699219 15.519531 C 36.101562 15.460938 36.464844 15.390625 36.789062 15.308594 C 36.429688 14.851562 36.046875 14.414062 35.640625 14 C 35.234375 13.613281 34.808594 13.242188 34.371094 12.890625 L 33.898438 13.089844 C 33.710938 13.175781 33.53125 13.28125 33.359375 13.398438 C 33.195312 13.511719 33.046875 13.648438 32.921875 13.800781 C 32.808594 13.929688 32.746094 14.089844 32.738281 14.261719 L 32.839844 14.589844 C 32.691406 14.867188 32.453125 15.089844 32.160156 15.210938 C 31.910156 15.296875 31.644531 15.34375 31.378906 15.351562 L 30.558594 15.351562 C 30.28125 15.335938 30.003906 15.390625 29.75 15.5 L 29.480469 14.921875 L 29.738281 13.921875 L 29.449219 13.488281 L 32.449219 12.570312 C 32.335938 12.261719 32.117188 12.007812 31.828125 11.851562 C 31.546875 11.691406 31.226562 11.609375 30.898438 11.609375 L 30.898438 11.441406 L 31.898438 11.289062 C 30.84375 10.765625 29.734375 10.363281 28.589844 10.089844 C 26.445312 9.582031 24.21875 9.550781 22.058594 10 C 21.097656 10.195312 20.15625 10.476562 19.25 10.851562 C 18.339844 11.222656 17.464844 11.675781 16.640625 12.210938 C 15.816406 12.726562 15.042969 13.328125 14.339844 14 C 14.589844 13.988281 14.835938 14.070312 15.03125 14.230469 C 15.191406 14.382812 15.339844 14.550781 15.46875 14.730469 C 15.597656 14.90625 15.738281 15.074219 15.890625 15.230469 C 16.046875 15.386719 16.265625 15.472656 16.488281 15.460938 L 16.761719 15.25 L 16.761719 14.871094 L 17.320312 14.070312 L 16.878906 12.808594 L 17.148438 12.640625 C 17.230469 12.574219 17.328125 12.535156 17.429688 12.519531 C 17.695312 12.515625 17.957031 12.53125 18.21875 12.570312 C 18.390625 12.597656 18.550781 12.667969 18.691406 12.769531 C 18.828125 12.878906 18.949219 13.011719 19.050781 13.160156 C 19.164062 13.328125 19.324219 13.539062 19.53125 13.800781 L 20.148438 13.320312 L 20.710938 13.550781 C 20.96875 13.660156 21.222656 13.789062 21.46875 13.929688 C 21.707031 14.0625 21.929688 14.210938 22.140625 14.378906 C 22.296875 14.476562 22.402344 14.636719 22.429688 14.820312 C 22.433594 14.980469 22.359375 15.132812 22.230469 15.230469 C 22.082031 15.34375 21.917969 15.429688 21.738281 15.488281 C 21.53125 15.5625 21.316406 15.613281 21.101562 15.648438 L 20.460938 15.78125 C 20.285156 15.816406 20.117188 15.878906 19.960938 15.960938 C 19.84375 16.003906 19.761719 16.113281 19.75 16.238281 L 20.75 16.558594 C 20.515625 16.757812 20.269531 16.9375 20.011719 17.101562 C 19.75 17.261719 19.480469 17.410156 19.199219 17.539062 L 19.269531 17.828125 L 17.699219 18.449219 L 17.699219 18.929688 L 17.578125 18.980469 L 17.671875 18.378906 L 17.601562 18.378906 C 17.519531 18.378906 17.46875 18.378906 17.449219 18.429688 C 17.433594 18.46875 17.433594 18.511719 17.449219 18.550781 C 17.445312 18.597656 17.445312 18.644531 17.449219 18.691406 C 17.460938 18.722656 17.460938 18.757812 17.449219 18.789062 L 17.230469 18.671875 L 17.230469 18.738281 C 17.238281 18.792969 17.257812 18.84375 17.289062 18.890625 C 17.332031 18.960938 17.378906 19.027344 17.429688 19.089844 L 17.628906 19.339844 C 17.628906 19.339844 17.628906 19.410156 17.550781 19.441406 L 17.390625 19.519531 L 17.25 19.519531 C 17.25 19.519531 17.441406 19.519531 17.339844 19.519531 C 17.195312 19.5625 17.054688 19.617188 16.921875 19.691406 C 16.71875 19.792969 16.539062 19.929688 16.378906 20.089844 C 16.195312 20.289062 16.101562 20.558594 16.121094 20.828125 C 16.121094 21.023438 16.121094 21.210938 16.121094 21.390625 C 16.144531 21.574219 16.144531 21.765625 16.121094 21.949219 C 15.988281 21.550781 15.738281 21.203125 15.398438 20.949219 C 15.058594 20.71875 14.652344 20.601562 14.238281 20.609375 L 13.511719 20.679688 L 13.871094 20.921875 L 13.28125 21 C 13.074219 20.980469 12.867188 20.980469 12.660156 21 C 12.457031 21.015625 12.257812 21.066406 12.070312 21.140625 C 11.878906 21.21875 11.707031 21.335938 11.570312 21.488281 L 11.46875 22.261719 C 11.457031 22.578125 11.542969 22.894531 11.71875 23.160156 C 11.917969 23.410156 12.230469 23.542969 12.550781 23.511719 C 12.890625 23.511719 13.226562 23.457031 13.550781 23.351562 C 13.882812 23.242188 14.214844 23.125 14.550781 23 C 14.449219 23.25 14.335938 23.492188 14.210938 23.730469 C 14.085938 23.960938 13.996094 24.210938 13.941406 24.46875 L 14.160156 24.570312 C 14.371094 24.394531 14.664062 24.359375 14.910156 24.480469 C 15.164062 24.625 15.390625 24.8125 15.578125 25.03125 L 16.25 25.769531 C 16.449219 26.007812 16.703125 26.191406 16.988281 26.308594 L 16.410156 26.621094 L 15 25.800781 C 15.007812 25.867188 15.007812 25.933594 15 26 C 15 26.078125 15 26.097656 15 26.050781 L 14.378906 25.050781 C 13.984375 25.035156 13.59375 24.972656 13.210938 24.871094 C 12.796875 24.734375 12.390625 24.570312 12 24.378906 C 11.59375 24.21875 11.195312 24.03125 10.808594 23.820312 C 10.460938 23.632812 10.128906 23.417969 9.808594 23.179688 L 9.691406 25 C 9.6875 26.375 9.875 27.746094 10.25 29.070312 C 10.988281 31.699219 12.402344 34.089844 14.351562 36 C 15.328125 36.964844 16.441406 37.785156 17.648438 38.441406 C 17.597656 38.203125 17.597656 37.957031 17.648438 37.71875 C 17.695312 37.476562 17.757812 37.238281 17.828125 37 L 18.050781 36.269531 C 18.121094 36.035156 18.160156 35.789062 18.160156 35.539062 C 18.160156 35.144531 18.109375 34.75 18 34.371094 C 17.882812 33.960938 17.742188 33.554688 17.578125 33.160156 C 17.414062 32.753906 17.238281 32.351562 17.058594 31.960938 C 16.878906 31.566406 16.722656 31.1875 16.589844 30.820312 C 16.46875 30.496094 16.382812 30.160156 16.328125 29.820312 C 16.28125 29.550781 16.316406 29.277344 16.429688 29.03125 L 16.171875 28.910156 C 16.242188 28.746094 16.335938 28.589844 16.449219 28.449219 L 16.800781 28 C 16.910156 27.851562 17.007812 27.695312 17.089844 27.53125 C 17.167969 27.371094 17.210938 27.195312 17.210938 27.019531 C 17.207031 26.894531 17.179688 26.765625 17.128906 26.648438 C 17.078125 26.535156 17.035156 26.417969 17 26.300781 L 17.359375 26.390625 C 17.503906 26 17.785156 25.679688 18.148438 25.480469 C 18.539062 25.304688 18.964844 25.21875 19.390625 25.230469 C 19.511719 25.242188 19.632812 25.269531 19.75 25.308594 L 20.328125 25.488281 L 20.921875 25.691406 L 21.320312 25.820312 C 21.320312 25.898438 21.371094 25.953125 21.46875 25.980469 C 21.570312 25.980469 21.621094 26.050781 21.621094 26.089844 L 21.621094 26.230469 L 21.871094 26.359375 L 22.28125 26.609375 L 22.671875 26.878906 L 22.898438 27.070312 C 23.191406 27.089844 23.480469 27.160156 23.75 27.28125 C 24.140625 27.433594 24.527344 27.605469 24.898438 27.800781 C 25.332031 28.023438 25.753906 28.273438 26.160156 28.539062 C 26.558594 28.800781 26.945312 29.082031 27.308594 29.390625 C 27.621094 29.644531 27.90625 29.929688 28.160156 30.238281 C 28.347656 30.445312 28.464844 30.703125 28.488281 30.980469 L 27.910156 31.601562 C 27.96875 32.050781 27.925781 32.507812 27.78125 32.941406 C 27.660156 33.242188 27.457031 33.503906 27.199219 33.699219 C 26.917969 33.90625 26.613281 34.078125 26.289062 34.210938 C 25.910156 34.375 25.542969 34.570312 25.191406 34.789062 C 25.183594 35.046875 25.125 35.296875 25.019531 35.53125 C 24.90625 35.796875 24.757812 36.050781 24.578125 36.28125 C 24.40625 36.507812 24.199219 36.707031 23.960938 36.871094 C 23.753906 37.019531 23.503906 37.105469 23.25 37.109375 L 22.53125 36.558594 C 22.53125 36.558594 22.53125 36.628906 22.53125 36.691406 C 22.53125 36.75 22.480469 36.761719 22.449219 36.691406 C 22.566406 36.921875 22.597656 37.1875 22.539062 37.441406 C 22.476562 37.742188 22.378906 38.03125 22.25 38.308594 C 22.117188 38.601562 21.960938 38.886719 21.789062 39.160156 C 21.648438 39.386719 21.496094 39.609375 21.328125 39.820312 C 21.9375 39.980469 22.554688 40.097656 23.179688 40.179688 C 23.785156 40.261719 24.390625 40.304688 25 40.308594 Z M 16 22.589844 C 16.167969 22.59375 16.335938 22.621094 16.5 22.671875 L 17.058594 22.851562 L 17.609375 23.070312 L 18.101562 23.28125 L 17.539062 23.28125 C 17.359375 23.285156 17.179688 23.253906 17.011719 23.191406 C 16.855469 23.128906 16.707031 23.058594 16.558594 22.980469 L 16.148438 22.769531 C 16.035156 22.710938 15.910156 22.683594 15.78125 22.679688 C 15.671875 22.679688 15.566406 22.703125 15.46875 22.75 L 15.199219 22.898438 C 15.199219 22.898438 15.199219 22.828125 15.078125 22.828125 C 15.207031 22.726562 15.359375 22.660156 15.519531 22.628906 C 15.679688 22.601562 15.839844 22.585938 16 22.589844 Z M 18.308594 23.359375 C 18.75 23.355469 19.183594 23.4375 19.589844 23.601562 L 19.109375 23.75 C 18.945312 23.789062 18.777344 23.8125 18.609375 23.808594 C 18.402344 23.8125 18.191406 23.789062 17.988281 23.738281 C 18.03125 23.667969 18.089844 23.605469 18.160156 23.558594 C 18.222656 23.511719 18.265625 23.4375 18.28125 23.359375 Z M 36.871094 15.359375 C 36.878906 15.425781 36.859375 15.496094 36.820312 15.550781 L 37.019531 15.550781 Z M 38 17 L 37.519531 16.269531 C 37.359375 16.035156 37.191406 15.808594 37.019531 15.578125 C 37.007812 15.660156 36.976562 15.734375 36.929688 15.800781 C 36.878906 15.894531 36.855469 16.003906 36.871094 16.109375 C 36.875 16.222656 36.921875 16.328125 37 16.410156 C 37.089844 16.511719 37.195312 16.597656 37.308594 16.671875 C 37.425781 16.75 37.550781 16.820312 37.679688 16.878906 C 37.78125 16.929688 37.890625 16.96875 38 17 Z M 38 17 "/>
</g>
</svg>
